<svg xmlns="http://www.w3.org/2000/svg" xmlns:xlink="http://www.w3.org/1999/xlink" viewBox="0 0 640 520"><defs id="defs_block"><filter id="filter_blur" width="1.157" height="1.504" x="-.079" y="-.252"><feGaussianBlur id="feGaussianBlur3780" stdDeviation="4.2"/></filter></defs><title>blockdiag</title><desc/><rect style="filter:url(#filter_blur);opacity:.7;fill-opacity:1" width="128" height="40" x="67" y="46" fill="#000" stroke="#000"/><rect style="filter:url(#filter_blur);opacity:.7;fill-opacity:1" width="128" height="40" x="67" y="126" fill="#000" stroke="#000"/><rect style="filter:url(#filter_blur);opacity:.7;fill-opacity:1" width="128" height="40" x="67" y="206" fill="#000" stroke="#000"/><rect style="filter:url(#filter_blur);opacity:.7;fill-opacity:1" width="128" height="40" x="67" y="286" fill="#000" stroke="#000"/><rect style="filter:url(#filter_blur);opacity:.7;fill-opacity:1" width="128" height="40" x="259" y="286" fill="#000" stroke="#000"/><rect style="filter:url(#filter_blur);opacity:.7;fill-opacity:1" width="128" height="40" x="67" y="366" fill="#000" stroke="#000"/><rect style="filter:url(#filter_blur);opacity:.7;fill-opacity:1" width="128" height="40" x="259" y="366" fill="#000" stroke="#000"/><rect style="filter:url(#filter_blur);opacity:.7;fill-opacity:1" width="128" height="40" x="451" y="366" fill="#000" stroke="#000"/><rect style="filter:url(#filter_blur);opacity:.7;fill-opacity:1" width="128" height="40" x="451" y="446" fill="#000" stroke="#000"/><rect width="128" height="40" x="64" y="40" fill="#FFF" stroke="#000"/><text x="128" y="64" fill="#000" font-family="sans-serif" font-size="8" font-style="normal" font-weight="normal" text-anchor="middle" textLength="44">ubuntu@SHA</text><rect width="128" height="40" x="64" y="120" fill="#FFF" stroke="#000"/><text x="128" y="144" fill="#000" font-family="sans-serif" font-size="8" font-style="normal" font-weight="normal" text-anchor="middle" textLength="58">base-notebook</text><rect width="128" height="40" x="64" y="200" fill="#FFF" stroke="#000"/><text x="128" y="224" fill="#000" font-family="sans-serif" font-size="8" font-style="normal" font-weight="normal" text-anchor="middle" textLength="71">minimal-notebook</text><rect width="128" height="40" x="64" y="280" fill="#FFF" stroke="#000"/><text x="128" y="304" fill="#000" font-family="sans-serif" font-size="8" font-style="normal" font-weight="normal" text-anchor="middle" textLength="62">scipy-notebook</text><rect width="128" height="40" x="256" y="280" fill="#FFF" stroke="#000"/><text x="320" y="304" fill="#000" font-family="sans-serif" font-size="8" font-style="normal" font-weight="normal" text-anchor="middle" textLength="44">r-notebook</text><rect width="128" height="40" x="64" y="360" fill="#FFF" stroke="#000"/><text x="128" y="384" fill="#000" font-family="sans-serif" font-size="8" font-style="normal" font-weight="normal" text-anchor="middle" textLength="84">tensorflow-notebook</text><rect width="128" height="40" x="256" y="360" fill="#FFF" stroke="#000"/><text x="320" y="384" fill="#000" font-family="sans-serif" font-size="8" font-style="normal" font-weight="normal" text-anchor="middle" textLength="88">datascience-notebook</text><rect width="128" height="40" x="448" y="360" fill="#FFF" stroke="#000"/><text x="512" y="384" fill="#000" font-family="sans-serif" font-size="8" font-style="normal" font-weight="normal" text-anchor="middle" textLength="71">pyspark-notebook</text><rect width="128" height="40" x="448" y="440" fill="#FFF" stroke="#000"/><text x="512" y="464" fill="#000" font-family="sans-serif" font-size="8" font-style="normal" font-weight="normal" text-anchor="middle" textLength="80">all-spark-notebook</text><path fill="none" stroke="#000" d="M 128 80 L 128 112"/><polygon fill="#000" stroke="#000" points="128 119 124 112 132 112 128 119"/><path fill="none" stroke="#000" d="M 128 160 L 128 192"/><polygon fill="#000" stroke="#000" points="128 199 124 192 132 192 128 199"/><path fill="none" stroke="#000" d="M 128 240 L 128 260"/><path fill="none" stroke="#000" d="M 128 260 L 320 260"/><path fill="none" stroke="#000" d="M 320 260 L 320 272"/><polygon fill="#000" stroke="#000" points="320 279 316 272 324 272 320 279"/><path fill="none" stroke="#000" d="M 128 240 L 128 272"/><polygon fill="#000" stroke="#000" points="128 279 124 272 132 272 128 279"/><path fill="none" stroke="#000" d="M 128 320 L 128 340"/><path fill="none" stroke="#000" d="M 128 340 L 512 340"/><path fill="none" stroke="#000" d="M 512 340 L 512 352"/><polygon fill="#000" stroke="#000" points="512 359 508 352 516 352 512 359"/><path fill="none" stroke="#000" d="M 128 320 L 128 352"/><polygon fill="#000" stroke="#000" points="128 359 124 352 132 352 128 359"/><path fill="none" stroke="#000" d="M 128 320 L 128 340"/><path fill="none" stroke="#000" d="M 128 340 L 320 340"/><path fill="none" stroke="#000" d="M 320 340 L 320 352"/><polygon fill="#000" stroke="#000" points="320 359 316 352 324 352 320 359"/><path fill="none" stroke="#000" d="M 512 400 L 512 432"/><polygon fill="#000" stroke="#000" points="512 439 508 432 516 432 512 439"/></svg>